<?xml version="1.0" encoding="UTF-8"?>
<svg width="319px" height="95px" viewBox="0 0 319 95" version="1.1" xmlns="http://www.w3.org/2000/svg" xmlns:xlink="http://www.w3.org/1999/xlink">
    <!-- Generator: Sketch 49.3 (51167) - http://www.bohemiancoding.com/sketch -->
    <title>logo-new</title>
    <desc>Created with Sketch.</desc>
    <defs>
        <filter x="-0.7%" y="-4.0%" width="103.0%" height="111.9%" filterUnits="objectBoundingBox" id="filter-1">
            <feOffset dx="2" dy="1" in="SourceAlpha" result="shadowOffsetOuter1"></feOffset>
            <feGaussianBlur stdDeviation="1" in="shadowOffsetOuter1" result="shadowBlurOuter1"></feGaussianBlur>
            <feColorMatrix values="0 0 0 0 0   0 0 0 0 0   0 0 0 0 0  0 0 0 0.5 0" type="matrix" in="shadowBlurOuter1" result="shadowMatrixOuter1"></feColorMatrix>
            <feMerge>
                <feMergeNode in="shadowMatrixOuter1"></feMergeNode>
                <feMergeNode in="SourceGraphic"></feMergeNode>
            </feMerge>
        </filter>
    </defs>
    <g id="Page-1" stroke="none" stroke-width="1" fill="none" fill-rule="evenodd">
        <g id="logo-new" filter="url(#filter-1)" transform="translate(10.000000, 10.000000)" fill-rule="nonzero">
            <path d="M15.3827086,0.292019347 C11.9376667,0.715512151 8.70083138,2.16955928 6.09613059,4.4637243 C1.86275695,8.2980653 0,12.4607013 0,18.1233374 C0.0126964933,20.7569528 0.181378476,22.2025393 0.841596131,24.834341 C2.8694075,32.8875453 8.52660218,42.4280532 17.0423216,52.1608222 C19.853688,55.3748489 26.6844015,62.123942 26.8984281,61.8972189 C26.9347037,61.8609432 26.0096735,60.379081 24.834341,58.5997582 C20.0078597,51.2811366 16.5090689,45.3391778 13.5435308,39.4099154 C9.15598549,30.6384522 7.17533253,23.9782346 7.40024184,18.8488513 C7.55441354,15.598549 8.57376058,13.2261185 10.6505441,11.3288996 C12.7273277,9.43168077 14.6952842,8.60822249 17.1493349,8.58827086 C20.4812576,8.58827086 24.0054414,9.8452237 30.4915357,13.356711 C35.4848851,16.0610641 37.4292624,16.8917775 39.3391778,17.1275695 C41.165659,17.3651753 43.3295042,16.8899637 45.5659008,15.7509069 C47.047763,15.0163241 48.0453446,14.3869407 51.6620314,11.907497 C56.7968561,8.40870617 58.8010883,7.40024184 60.6765417,7.40024184 C62.6807739,7.40024184 64.7212817,9.57678356 65.4685611,12.5241838 C66.0489722,14.789601 66.0979444,18.8452237 65.5991536,22.1662636 C64.8155985,27.4081016 62.8113664,34.2986699 60.3573156,40.2170496 L59.7279323,41.7351874 L59.6735187,37.0483676 C59.6027811,31.7593712 59.6027811,31.7466747 58.6886336,31.1426844 C58.238815,30.834341 58.1191052,30.8216445 56.5411125,30.7799274 C54.2756953,30.7200726 53.6590085,30.9340992 53.1493349,31.9534462 C52.9244256,32.3796856 52.9117291,32.6644498 52.9117291,37.694075 L52.9117291,42.9721886 L47.6336155,42.9721886 C42.6039903,42.9721886 42.3210399,42.9848851 41.8929867,43.2097944 C40.8736397,43.719468 40.6596131,44.3361548 40.719468,46.6015719 C40.7557437,48.1795647 40.7666264,48.2974607 41.0822249,48.7490931 C41.6989117,49.6868198 41.6154776,49.6741233 47.6118501,49.710399 L52.9135429,49.7466747 L52.9498186,55.1191052 L52.9860943,60.480653 L53.3071342,60.9667473 C53.8295042,61.761185 54.2448609,61.8917775 56.3071342,61.8917775 C57.758162,61.8917775 58.1571947,61.8555018 58.4546554,61.6904474 C58.9849489,61.3864886 59.3827246,60.8955753 59.570133,60.3137848 C59.6408706,60.041717 59.688029,57.9304716 59.688029,54.7980653 L59.688029,49.7376058 L64.7666264,49.7376058 C67.8863362,49.7376058 69.9975816,49.6904474 70.2696493,49.6197098 C70.8514398,49.4323014 71.3423532,49.0345257 71.646312,48.5042322 C71.8131802,48.2085852 71.8476421,47.8168077 71.8476421,46.356711 C71.8476421,44.2926239 71.7170496,43.8772672 70.9226119,43.356711 L70.4365175,43.0356711 L65.6680774,42.9993954 L60.8996372,42.9631197 L61.8482467,41.4087062 C66.4860943,33.7908102 69.4987908,26.3542926 70.685006,19.6215236 C70.9240614,18.2437654 71.0454185,16.8481603 71.047763,15.4498186 C71.1420798,11.7496977 70.7394196,9.50785973 69.5423216,7.08827086 C67.9770254,3.92140266 65.0586457,1.56166868 61.8681983,0.908706167 C60.5042322,0.623941959 58.0139057,0.72732769 56.426844,1.14631197 C53.8530834,1.82285369 50.9709794,3.18681983 46.5344619,5.83131802 C43.8428053,7.44377267 41.4703748,8.6662636 40.8301088,8.76058041 C40.2370012,8.85489722 39.1813785,8.3814994 35.2908102,6.23397823 C29.4087062,3.00725514 26.4032648,1.69951632 22.8137848,0.825272068 C20.3397823,0.233978235 17.5937122,0.030834341 15.3827086,0.292019347 Z" id="Shape" fill="#25B2E5"></path>
            <g id="Group" transform="translate(73.639661, 0.181378)" fill="#25B2E5">
                <path d="M12.4915357,33.9032648 C7.83010883,33.9032648 4.35489722,32.5320435 0.469770254,29.4232164 C0.0580411125,29.1039903 0.0126964933,28.7376058 0.288391778,28.3349456 L3.39721886,23.9020556 C3.51149271,23.7237176 3.69898933,23.6052595 3.90911906,23.5786431 C4.11924878,23.5520267 4.33035936,23.6199945 4.48548972,23.764208 C7.22793229,25.6831923 10.0157195,26.8730351 12.9866989,26.9183797 C15.9576784,26.9183797 18.0652963,25.9135429 18.0652963,23.9020556 C18.0652963,21.5713422 15.3228537,20.8403869 12.168682,20.2001209 C7.55259976,19.2406288 0.696493349,16.95526 0.696493349,9.54957678 C0.696493349,3.20133011 6.13784764,0.0888754534 13.0828295,0.0888754534 C17.1058041,0.0888754534 20.3506651,1.09371221 24.1469166,3.6076179 C24.6039903,3.8814994 24.691052,4.29322854 24.3754534,4.69588875 L21.4498186,9.08887545 C21.1759371,9.50060459 20.764208,9.59129383 20.3071342,9.31741233 C18.0449246,7.85389197 15.4142547,7.06148363 12.7200726,7.03204353 C9.47521161,7.03204353 8.19467956,8.12031439 8.19467956,9.77448609 C8.19467956,11.7859734 10.1136638,12.3337364 13.9987908,13.2478839 C20.3470375,14.8022975 25.6070133,16.904474 25.6070133,23.6698912 C25.6088271,30.0689238 20.4957678,33.9032648 12.4915357,33.9032648 Z" id="Shape"></path>
                <path d="M39.5042322,27.691052 C39.9159613,27.691052 40.4637243,27.6457074 40.9661427,27.6003628 C41.5610641,27.5096735 41.8349456,27.7382104 41.8349456,28.2859734 L41.8349456,32.7660218 C41.8349456,33.2230955 41.6535671,33.58948 41.1946796,33.6729141 C40.2434046,33.83077 39.2804757,33.9078287 38.3162031,33.9032648 C33.0145103,33.9032648 29.4486094,31.0229746 29.4486094,25.1735187 L29.4486094,4.6541717 C29.4486094,4.15175333 29.7224909,3.87787183 30.2720677,3.87787183 L35.0241838,3.87787183 C35.5266022,3.87787183 35.8004837,4.10640871 35.8476421,4.60338573 L36.3917775,10.0882709 L40.5054414,10.0882709 C41.0078597,10.0882709 41.3288996,10.3621524 41.3288996,10.8645707 L41.3288996,15.2521161 C41.3288996,15.7545345 41.0096735,16.028416 40.5054414,16.028416 L36.4407497,16.028416 L36.4407497,24.3083434 C36.4407497,26.5483676 37.4927449,27.691052 39.5042322,27.691052 Z" id="Shape"></path>
                <path d="M55.4093108,33.9540508 C48.6983071,33.9540508 44.5266022,30.2974607 44.5266022,24.2648126 L44.5266022,18.7781137 C44.5266022,12.6529625 48.6856106,8.95102781 55.4093108,8.95102781 C62.0822249,8.95102781 66.2412334,12.6529625 66.2412334,18.7781137 L66.2412334,24.2629988 C66.2430472,30.2974607 62.0822249,33.9540508 55.4093108,33.9540508 Z M55.4093108,27.7871826 C57.8325272,27.7871826 59.1565901,26.5538089 59.1565901,24.2684401 L59.1565901,18.7781137 C59.1565901,16.4927449 57.8307134,15.1668682 55.4093108,15.1668682 C52.9879081,15.1668682 51.6620314,16.4927449 51.6620314,18.7781137 L51.6620314,24.2629988 C51.6620314,26.5483676 52.9879081,27.783555 55.4093108,27.783555 L55.4093108,27.7871826 Z" id="Shape"></path>
                <path d="M93.1632406,8.99637243 C99.1958888,8.99637243 103.356711,12.5622733 103.356711,19.0066505 L103.356711,32.5356711 C103.356711,33.0798065 103.08283,33.3591294 102.580411,33.3591294 L97.2769045,33.3591294 C96.7279322,33.3591294 96.4534462,33.0846433 96.4534462,32.5356711 L96.4534462,18.7781137 C96.4534462,16.5380895 95.3651753,15.2122128 92.9347037,15.2122128 C91.8992902,15.2111228 90.8793256,15.4633119 89.9637243,15.9467956 C90.2817234,16.904456 90.4362403,17.9088161 90.4207981,18.9177751 L90.4207981,32.5392987 C90.4207981,33.0834341 90.1469166,33.362757 89.6444982,33.362757 L84.3409915,33.362757 C83.7920193,33.362757 83.5175333,33.0882709 83.5175333,32.5392987 L83.5175333,18.7781137 C83.5175333,16.4020556 82.4292624,15.1668682 80.1801693,15.1668682 C79.2670135,15.1763749 78.3599465,15.3168634 77.4866989,15.5840387 L77.4866989,32.5411125 C77.4866989,33.0852479 77.1674728,33.3645707 76.6632406,33.3645707 L71.3615478,33.3645707 C70.8125755,33.3645707 70.5380895,33.0900847 70.5380895,32.5411125 L70.5380895,11.7859734 C70.5154262,11.3487716 70.7725115,10.9453006 71.1783555,10.7811366 C74.0114407,9.63382395 77.0348664,9.02901575 80.0912938,8.99818622 C82.3135368,8.96792864 84.4886953,9.63945414 86.3071342,10.9171705 C88.7303507,9.63663845 90.6892382,8.99637243 93.1632406,8.99637243 Z" id="Shape"></path>
                <path d="M117.478839,8.95102781 C123.787183,8.95102781 127.489117,12.2412334 127.489117,19.1898428 L127.489117,31.7049577 C127.510586,32.13347 127.221638,32.5156756 126.803507,32.6118501 C124.106409,33.4353083 120.495163,33.9377267 117.38815,33.9377267 C110.805925,33.9377267 106.646917,31.4691657 106.646917,26.0767836 C106.646917,21.3228537 110.394196,18.9467956 116.61185,18.9467956 C117.911218,18.9599617 119.208612,19.0514215 120.496977,19.2206771 L120.496977,18.7636034 C120.496977,16.3403869 119.628174,15.0163241 116.657195,15.0163241 C114.645707,15.0163241 112.269649,15.5604595 110.943773,16.2968561 C110.532044,16.525393 110.07497,16.4782346 109.855502,16.0229746 L107.981862,12.4570738 C107.753325,12 107.753325,11.6807739 108.072551,11.452237 C110.212817,10.0937122 113.542926,8.95102781 117.478839,8.95102781 Z M117.38815,28.2859734 C118.433931,28.2690535 119.475395,28.1475292 120.496977,27.9232164 L120.496977,23.8984281 C119.455954,23.7125271 118.40029,23.6208622 117.342805,23.6245466 C114.8289,23.6245466 113.73156,24.4480048 113.73156,25.9099154 C113.724305,27.5078597 115.19347,28.280532 117.38815,28.280532 L117.38815,28.2859734 Z" id="Shape"></path>
                <path d="M145.63422,1.50181378 C145.63422,0.957678356 145.908102,0.678355502 146.41052,0.678355502 L151.813785,0.678355502 C152.362757,0.678355502 152.637243,0.952841596 152.637243,1.50181378 L152.637243,31.3476421 C152.671046,31.7769638 152.406392,32.1735704 151.996977,32.3071342 C149.20919,33.311971 145.467352,33.952237 142.353083,33.952237 C135.954051,33.952237 131.521161,30.1124547 131.521161,23.5773881 L131.521161,19.0519952 C131.521161,12.885127 135.544135,8.95102781 141.393591,8.95102781 C142.844041,8.97187311 144.280883,9.2342316 145.645103,9.72732769 L145.63422,1.50181378 Z M142.480048,27.783555 C143.552245,27.7951034 144.618673,27.6252354 145.63422,27.2811366 L145.63422,15.8071342 C144.646085,15.2937033 143.548261,15.0273378 142.434704,15.0308343 C139.966143,15.0308343 138.640266,16.3113664 138.640266,18.9613059 L138.640266,23.7152358 C138.64208,26.5937122 140.013301,27.783555 142.481862,27.783555 L142.480048,27.783555 Z" id="Shape"></path>
                <path d="M177.767231,23.0749698 C177.767231,23.5773881 177.493349,23.8512696 176.943773,23.8512696 L164.00786,23.8512696 L164.00786,24.5767836 C164.00786,26.907497 165.516929,28.095526 167.938331,28.095526 C170.2237,28.095526 172.09734,27.4099154 173.742443,26.4504232 C174.154172,26.1311971 174.518742,26.2218863 174.794438,26.6318017 L177.170496,29.7859734 C177.444377,30.1977025 177.444377,30.6094317 177.032648,30.9286578 C174.701935,32.7116082 171.730955,33.9449819 167.707981,33.9449819 C161.766022,33.9449819 156.966747,30.7908102 156.966747,24.4371221 L156.966747,18.6874244 C156.966747,11.8766626 161.766022,8.95102781 167.570133,8.95102781 C173.192866,8.95102781 177.763603,11.7841596 177.763603,18.6874244 L177.767231,23.0749698 Z M167.528416,14.7569528 C165.426239,14.7569528 164.009674,15.8452237 164.009674,18.3681983 L164.009674,19.3276904 L171.039903,19.3276904 L171.039903,18.3681983 C171.039903,15.8996372 169.588875,14.7569528 167.528416,14.7569528 Z" id="Shape"></path>
                <path d="M201.625756,9.59854897 C202.169891,9.59854897 202.449214,9.87243047 202.449214,10.3748489 L202.449214,31.1644498 C202.482323,31.5800274 202.241255,31.9688242 201.854293,32.123942 C199.11185,33.2666264 195.638452,33.952237 192.438936,33.952237 C185.537485,33.952237 181.652358,30.2503023 181.652358,23.3488513 L181.652358,10.3675937 C181.652358,9.86517533 181.926239,9.59129383 182.475816,9.59129383 L187.870012,9.59129383 C188.414148,9.59129383 188.69347,9.86517533 188.69347,10.3675937 L188.69347,23.3941959 C188.69347,26.7315599 190.064692,27.7817412 192.44075,27.7817412 C193.628779,27.7817412 194.771463,27.6003628 195.457074,27.3246675 L195.457074,10.3675937 C195.457074,9.86517533 195.730955,9.59129383 196.233374,9.59129383 L201.625756,9.59854897 Z" id="Shape"></path>
                <path d="M216.021765,33.9540508 C212.624826,33.948871 209.309441,32.9128919 206.513906,30.9830713 C206.056832,30.6638452 206.011487,30.2974607 206.285369,29.8403869 L208.43289,26.1837969 C208.752116,25.6813785 209.073156,25.5888755 209.521161,25.9099154 C211.438823,27.2416964 213.716048,27.9590222 216.050786,27.9667473 C217.96977,27.9667473 219.295647,27.3264813 219.295647,26.1384522 C219.295647,24.9504232 217.833736,24.5386941 216.005441,24.219468 C211.022975,23.3960097 206.954655,21.2938331 206.954655,16.4945586 C206.954655,11.4667473 210.885127,8.9528416 216.87243,8.9528416 C219.614873,8.9528416 222.174123,9.59310762 224.961911,11.0550181 C225.418984,11.283555 225.506046,11.6952842 225.235792,12.143289 L223.133615,15.7091898 C222.859734,16.1662636 222.493349,16.2533253 222.045345,16.028416 C220.408333,15.1763953 218.592687,14.7245041 216.747279,14.7097944 C214.781137,14.7097944 213.821644,15.2539299 213.821644,16.4002418 C213.821644,17.6807739 214.87364,18.0453446 217.797461,18.5024184 C222.551391,19.3258767 226.344015,21.2902056 226.344015,25.9534462 C226.360339,31.3022975 222.551391,33.9540508 216.021765,33.9540508 Z" id="Shape"></path>
            </g>
            <g id="Group" transform="translate(75.634825, 43.530834)">
                <rect id="Rectangle-path" fill="#939598" x="0" y="0.166868198" width="222.370012" height="30.471584"></rect>
                <g id="Shape" transform="translate(9.613059, 8.162031)" fill="#F7F8F9">
                    <path d="M2.43228537,12.4480048 C2.23639661,12.4480048 2.13845224,12.3174123 2.23639661,12.1215236 L3.70556227,8.75876663 L0.130592503,1.10278114 C0.0489721886,0.906892382 0.130592503,0.776299879 0.34280532,0.776299879 L2.595526,0.776299879 C2.74616505,0.773901733 2.8826069,0.864862968 2.93833132,1.00483676 L4.97883918,5.91837969 L6.85610641,1.00483676 C6.90042541,0.863369414 7.03449573,0.769520187 7.18258767,0.776299879 L9.43168077,0.776299879 C9.64389359,0.776299879 9.72551391,0.906892382 9.66021765,1.10278114 L5.0241838,12.219468 C4.96845938,12.3594418 4.83201753,12.450403 4.68137848,12.4480048 L2.43228537,12.4480048 Z"></path>
                    <path d="M8.91293833,12.5296252 C8.83265313,12.5383369 8.75274575,12.5101915 8.69564231,12.453088 C8.63853885,12.3959846 8.61039346,12.3160772 8.6191052,12.235792 L8.6191052,10.6360339 C8.61560519,10.4757401 8.73691924,10.3401538 8.89661427,10.3258767 C9.38633615,10.2442563 9.69649335,9.93409915 9.90870617,9.0362757 C10.120919,8.13845224 10.2714631,6.60399033 10.3331318,4.23700121 C10.3307604,4.15979454 10.3615389,4.08526306 10.4176956,4.03222612 C10.4738524,3.97918921 10.5500196,3.9527164 10.6269649,3.95949214 L16.5199516,3.95949214 C16.7158404,3.95949214 16.8137848,4.05743652 16.8137848,4.23700121 L16.8137848,12.1541717 C16.825496,12.2351292 16.7983301,12.3168673 16.7404887,12.3747087 C16.6826472,12.4325502 16.6009091,12.4597161 16.5199516,12.4480048 L14.6263603,12.4480048 C14.5454029,12.4597161 14.4636648,12.4325502 14.4058233,12.3747087 C14.3479819,12.3168673 14.320816,12.2351292 14.3325272,12.1541717 L14.3325272,6.1305925 L12.6185006,6.1305925 C12.5695284,7.59975816 12.3899637,9.10157195 12.1287787,10.0320435 C11.688029,11.7623942 10.8065296,12.4480048 8.91293833,12.5296252 Z"></path>
                    <path d="M18.9359129,12.4480048 C18.8549556,12.4597161 18.7732174,12.4325502 18.7153759,12.3747087 C18.6575345,12.3168673 18.6303686,12.2351292 18.6420798,12.1541717 L18.6420798,4.23700121 C18.6420798,4.05562273 18.7400242,3.95949214 18.9359129,3.95949214 L20.8458283,3.95949214 C21.041717,3.95949214 21.1396614,4.05743652 21.1396614,4.23700121 L21.1396614,6.65296252 L22.5598549,6.65296252 C24.4534462,6.65296252 25.9226119,7.63240629 25.9226119,9.57496977 C25.9226119,11.5828295 24.4534462,12.4480048 22.5598549,12.4480048 L18.9359129,12.4480048 Z M21.1396614,10.4727932 L22.1680774,10.4727932 C22.9679565,10.4727932 23.4087062,10.162636 23.4087062,9.52599758 C23.4087062,8.88935913 22.9679565,8.595526 22.1680774,8.595526 L21.1396614,8.595526 L21.1396614,10.4727932 Z M27.1632406,12.4480048 C27.0822833,12.4597161 27.000545,12.4325502 26.9427036,12.3747087 C26.8848622,12.3168673 26.8576963,12.2351292 26.8694075,12.1541717 L26.8694075,4.23700121 C26.8694075,4.05562273 26.9673519,3.95949214 27.1632406,3.95949214 L29.08948,3.95949214 C29.1654437,3.95066902 29.2412732,3.97705694 29.2953488,4.03113252 C29.3494242,4.08520808 29.3758123,4.16103747 29.3669891,4.23700121 L29.3669891,12.1541717 C29.3669891,12.3500605 29.2690447,12.4480048 29.08948,12.4480048 L27.1632406,12.4480048 Z"></path>
                    <path d="M35.3688029,4.4165659 C37.3276904,4.4165659 38.6662636,5.70616687 38.6662636,7.77932285 L38.6662636,9.15054414 C38.6662636,11.5991536 36.8706167,12.6602177 34.8301088,12.6602177 C32.8349456,12.6602177 31.1082225,11.5991536 31.1082225,9.15054414 L31.1082225,4.2859734 C31.1082225,1.88633615 33.1487304,0.890568319 34.6505441,0.645707376 C35.1565901,0.564087062 36.2339782,0.400846433 36.9359129,0.0906892382 C36.9996466,0.0472017357 37.0789286,0.0330289288 37.1537815,0.0517421405 C37.2286344,0.0704553524 37.2919197,0.120270013 37.3276904,0.188633615 L38.1438936,1.57617896 C38.1948921,1.63752431 38.2135944,1.71950539 38.1942461,1.79689888 C38.1748977,1.87429237 38.1198163,1.93782758 38.0459492,1.96795647 C37.3204353,2.35973398 36.3155985,2.60459492 35.401451,2.80048368 C34.4873035,2.99637243 33.6221282,3.29020556 33.6221282,4.4165659 L33.6221282,4.74304716 C34.1777918,4.52239426 34.770953,4.41152304 35.3688029,4.4165659 Z M36.1360339,9.21584039 L36.1360339,7.7140266 C36.1360339,6.86517533 35.6952842,6.39177751 34.8301088,6.39177751 C34.4113435,6.38905077 33.997718,6.48407282 33.6221282,6.66928658 L33.6221282,9.20858525 C33.6221282,10.0737606 34.1662636,10.449214 34.8137848,10.449214 C35.5211608,10.4564692 36.1414752,10.0810157 36.1414752,9.21584039 L36.1360339,9.21584039 Z"></path>
                    <path d="M40.5163241,12.4480048 C40.4353667,12.4597161 40.3536285,12.4325502 40.2957871,12.3747087 C40.2379456,12.3168673 40.2107797,12.2351292 40.2224909,12.1541717 L40.2224909,4.23700121 C40.2224909,4.05562273 40.3204353,3.95949214 40.5163241,3.95949214 L42.4425635,3.95949214 C42.5185271,3.95066902 42.5943566,3.97705694 42.6484322,4.03113252 C42.7025077,4.08520808 42.7288957,4.16103747 42.7200726,4.23700121 L42.7200726,6.99576784 L44.9818622,6.99576784 L44.9818622,4.23700121 C44.9763292,4.15889409 45.0061313,4.08242516 45.0630586,4.02866059 C45.1199857,3.974896 45.1980316,3.94950856 45.2756953,3.95949214 L47.2019347,3.95949214 C47.2778984,3.95066902 47.3537278,3.97705694 47.4078034,4.03113252 C47.4618789,4.08520808 47.4882669,4.16103747 47.4794438,4.23700121 L47.4794438,12.1541717 C47.4794438,12.3500605 47.3814994,12.4480048 47.2019347,12.4480048 L45.2829504,12.4480048 C45.2026652,12.4567166 45.1227579,12.4285712 45.0656545,12.3714677 C45.0085509,12.3143643 44.9804055,12.2344569 44.9891173,12.1541717 L44.9891173,9.21584039 L42.7200726,9.21584039 L42.7200726,12.1541717 C42.7200726,12.3500605 42.6221282,12.4480048 42.4425635,12.4480048 L40.5163241,12.4480048 Z"></path>
                    <path d="M49.6088271,12.4480048 C49.5278697,12.4597161 49.4461315,12.4325502 49.3882901,12.3747087 C49.3304487,12.3168673 49.3032827,12.2351292 49.314994,12.1541717 L49.314994,4.23700121 C49.314994,4.05562273 49.4129383,3.95949214 49.6088271,3.95949214 L51.4860943,3.95949214 C51.563758,3.94950856 51.6418039,3.974896 51.698731,4.02866059 C51.7556583,4.08242516 51.7854604,4.15889409 51.7799274,4.23700121 L51.7799274,6.79987908 C51.7799274,7.42019347 51.7636034,8.23639661 51.7472793,8.87303507 L51.7636034,8.87303507 C52.0084643,8.32889964 52.7920193,6.89782346 53.0332527,6.47339782 L54.3264813,4.15719468 C54.3801989,4.02704318 54.512844,3.94745612 54.6529625,3.96130593 L56.6771463,3.96130593 C56.8730351,3.96130593 56.9709794,4.0592503 56.9709794,4.23881499 L56.9709794,12.1559855 C56.9826907,12.236943 56.9555247,12.3186811 56.8976833,12.3765225 C56.8398419,12.434364 56.7581037,12.4615298 56.6771463,12.4498186 L54.7998791,12.4498186 C54.6185006,12.4498186 54.52237,12.3518742 54.52237,12.1559855 L54.52237,9.59854897 C54.52237,9.04353083 54.5386941,8.12938331 54.5550181,7.55804111 L54.5386941,7.55804111 C54.3101572,8.10217654 53.6318017,9.37182588 53.2490931,10.0066505 L51.9431681,12.2593712 C51.877553,12.3865802 51.7432705,12.463313 51.6003628,12.45526 L49.6088271,12.4480048 Z"></path>
                    <path d="M62.4068924,12.6602177 C59.9419589,12.6602177 58.5380895,11.2889964 58.5380895,9.10157195 L58.5380895,7.25695284 C58.5380895,5.10217654 59.958283,3.73095526 62.3905683,3.73095526 C63.3370074,3.73224833 64.2642555,3.99798406 65.0677146,4.49818622 C65.137064,4.53771533 65.1858762,4.60536181 65.201531,4.68363575 C65.2171857,4.7619097 65.1981463,4.84312654 65.1493349,4.90628779 L64.2841596,6.21221282 C64.1862152,6.37545345 64.0556227,6.39359129 63.876058,6.31015719 C63.4567221,6.07437287 62.9857961,5.94542888 62.5048368,5.93470375 C61.6070133,5.93470375 61.0683192,6.42442563 61.0683192,7.25695284 L61.0683192,9.10157195 C61.0683192,10.0084643 61.6396614,10.4564692 62.4885127,10.4564692 C63.0456127,10.4531495 63.589858,10.2887421 64.0556227,9.98307134 C64.118784,9.93426005 64.2000007,9.91522048 64.2782748,9.93087526 C64.3565487,9.94653005 64.4241952,9.9953423 64.4637243,10.0646917 L65.3452237,11.3706167 C65.3941939,11.4276676 65.4168007,11.5027425 65.407475,11.5773476 C65.3981494,11.6519528 65.3577582,11.7191529 65.2962515,11.7623942 C64.4543135,12.3637341 63.4413658,12.6784918 62.4068924,12.6602177 Z"></path>
                    <path d="M66.7980653,12.4480048 C66.7171079,12.4597161 66.6353697,12.4325502 66.5775283,12.3747087 C66.5196869,12.3168673 66.4925209,12.2351292 66.5042322,12.1541717 L66.5042322,4.23700121 C66.5042322,4.05562273 66.6021765,3.95949214 66.7980653,3.95949214 L68.7079807,3.95949214 C68.9038694,3.95949214 69.0018138,4.05743652 69.0018138,4.23700121 L69.0018138,6.65296252 L70.4220073,6.65296252 C72.3155985,6.65296252 73.7847642,7.63240629 73.7847642,9.57496977 C73.7847642,11.5828295 72.3155985,12.4480048 70.4220073,12.4480048 L66.7980653,12.4480048 Z M69.0018138,10.4727932 L70.0302297,10.4727932 C70.8301088,10.4727932 71.2708585,10.162636 71.2708585,9.52599758 C71.2708585,8.88935913 70.8301088,8.595526 70.0302297,8.595526 L69.0018138,8.595526 L69.0018138,10.4727932 Z"></path>
                    <path d="M76.2007255,14.4558646 C76.1586521,14.5989603 76.0230976,14.6938484 75.8742443,14.6844015 L74.4540508,14.6844015 C74.3734591,14.6959025 74.2928336,14.6636643 74.2423894,14.5997683 C74.1919453,14.5358723 74.179299,14.4499664 74.2091898,14.3742443 L75.1723096,10.3240629 C75.1980082,10.172923 75.3291582,10.062481 75.4824667,10.0628779 L77.267231,10.0628779 C77.3507722,10.0529213 77.4332897,10.0882316 77.4837691,10.1555377 C77.5342487,10.2228437 77.5450418,10.3119473 77.5120919,10.3893591 L76.2007255,14.4558646 Z"></path>
                    <path d="M82.4038694,12.4480048 C82.322912,12.4597161 82.2411738,12.4325502 82.1833324,12.3747087 C82.125491,12.3168673 82.098325,12.2351292 82.1100363,12.1541717 L82.1100363,4.23700121 C82.1100363,4.05562273 82.2079807,3.95949214 82.4038694,3.95949214 L84.2811366,3.95949214 C84.3588004,3.94950856 84.4368463,3.974896 84.4937733,4.02866059 C84.5507006,4.08242516 84.5805027,4.15889409 84.5749698,4.23700121 L84.5749698,6.79987908 C84.5749698,7.42019347 84.5586457,8.23639661 84.5423216,8.87303507 L84.5586457,8.87303507 C84.8035067,8.32889964 85.5870617,6.89782346 85.828295,6.47339782 L87.1197098,4.15719468 C87.1734274,4.02704318 87.3060726,3.94745612 87.4461911,3.96130593 L89.4703748,3.96130593 C89.6662636,3.96130593 89.764208,4.0592503 89.764208,4.23881499 L89.764208,12.1559855 C89.7759192,12.236943 89.7487533,12.3186811 89.6909119,12.3765225 C89.6330704,12.434364 89.5513322,12.4615298 89.4703748,12.4498186 L87.5931076,12.4498186 C87.4117291,12.4498186 87.3155985,12.3518742 87.3155985,12.1559855 L87.3155985,9.59854897 C87.3155985,9.04353083 87.3319226,8.12938331 87.3482467,7.55804111 L87.3319226,7.55804111 C87.1033857,8.10217654 86.4250302,9.37182588 86.0423216,10.0066505 L84.7363966,12.2593712 C84.6707815,12.3865802 84.536499,12.463313 84.3935913,12.45526 L82.4038694,12.4480048 Z"></path>
                    <path d="M95.2490931,12.4480048 C95.1681357,12.4597161 95.0863975,12.4325502 95.0285561,12.3747087 C94.9707147,12.3168673 94.9435487,12.2351292 94.95526,12.1541717 L94.95526,4.23700121 C94.95526,4.05562273 95.0532044,3.95949214 95.2490931,3.95949214 L98.7914148,3.95949214 C100.848247,3.95949214 102.088875,4.82466747 102.088875,6.31741233 C102.097424,7.0071806 101.719273,7.64373484 101.109432,7.96614268 C101.974607,8.34159613 102.35006,9.04353083 102.35006,9.96130593 C102.35006,11.4957678 101.044135,12.4588875 98.9038694,12.4588875 L95.2490931,12.4480048 Z M97.4365175,7.30592503 L98.6698912,7.30592503 C99.2575574,7.30592503 99.6166868,7.04474002 99.6166868,6.55501814 C99.6166868,6.06529625 99.2539299,5.82950423 98.6535671,5.82950423 L97.4455865,5.82950423 L97.4365175,7.30592503 Z M97.4365175,10.5870617 L98.7261185,10.5870617 C99.4280532,10.5870617 99.8361548,10.3258767 99.8361548,9.75453446 C99.8361548,9.21039903 99.4443773,8.95465538 98.7261185,8.95465538 L97.4365175,8.95465538 L97.4365175,10.5870617 Z"></path>
                    <path d="M107.426844,12.6602177 C104.961911,12.6602177 103.558041,11.2889964 103.558041,9.10157195 L103.558041,7.25695284 C103.558041,5.10217654 104.978235,3.73095526 107.41052,3.73095526 C108.356891,3.73272916 109.28401,3.99842788 110.087666,4.49818622 C110.157016,4.53771533 110.205828,4.60536181 110.221483,4.68363575 C110.237137,4.7619097 110.218098,4.84312654 110.169287,4.90628779 L109.304111,6.21221282 C109.206167,6.37545345 109.075574,6.39359129 108.89601,6.31015719 C108.476674,6.07437287 108.005748,5.94542888 107.524788,5.93470375 C106.626965,5.93470375 106.088271,6.42442563 106.088271,7.25695284 L106.088271,9.10157195 C106.088271,10.0084643 106.659613,10.4564692 107.508464,10.4564692 C108.065564,10.4531495 108.60981,10.2887421 109.075574,9.98307134 C109.138736,9.93426005 109.219952,9.91522048 109.298226,9.93087526 C109.3765,9.94653005 109.444147,9.9953423 109.483676,10.0646917 L110.365175,11.3706167 C110.414146,11.4276676 110.436752,11.5027425 110.427427,11.5773476 C110.418101,11.6519528 110.37771,11.7191529 110.316203,11.7623942 C109.474265,12.3637341 108.461317,12.6784918 107.426844,12.6602177 Z"></path>
                    <path d="M118.608827,8.77509069 C118.608827,8.95646917 118.510883,9.05259976 118.314994,9.05259976 L113.695284,9.05259976 L113.695284,9.31378476 C113.695284,10.146312 114.23942,10.5707376 115.099154,10.5707376 C115.830865,10.5675631 116.547776,10.3643443 117.17231,9.98307134 C117.225756,9.92907682 117.302239,9.90464849 117.377089,9.91766585 C117.451939,9.9306832 117.515684,9.97949904 117.547763,10.0483676 L118.396614,11.1747279 C118.449023,11.2333841 118.473682,11.3117421 118.46431,11.3898406 C118.454939,11.4679391 118.41244,11.5382381 118.347642,11.5828295 C117.392592,12.3105264 116.217842,12.6905925 115.017533,12.6602177 C112.895405,12.6602177 111.181378,11.5338573 111.181378,9.26481258 L111.181378,7.20798065 C111.181378,4.77569528 112.895405,3.73095526 114.968561,3.73095526 C116.976421,3.73095526 118.608827,4.74304716 118.608827,7.20798065 L118.608827,8.77509069 Z M113.254534,3.01269649 C112.5526,3.01269649 112.03023,2.5719468 112.03023,1.8210399 C112.03023,1.03748489 112.5526,0.596735187 113.254534,0.596735187 C113.956469,0.596735187 114.446191,1.02116082 114.446191,1.80471584 C114.446191,2.58827086 113.956469,3.01269649 113.254534,3.01269649 Z M114.952237,5.80411125 C114.20133,5.80411125 113.695284,6.19588875 113.695284,7.09371221 L113.695284,7.43651753 L116.20919,7.43651753 L116.20919,7.09371221 C116.20919,6.21221282 115.68682,5.80411125 114.952237,5.80411125 Z M116.845828,3.01269649 C116.120314,3.01269649 115.621524,2.5719468 115.621524,1.80471584 C115.621524,1.03748489 116.12757,0.596735187 116.845828,0.596735187 C117.564087,0.596735187 118.037485,1.02116082 118.037485,1.80471584 C118.037485,2.58827086 117.547763,3.01269649 116.845828,3.01269649 Z"></path>
                    <path d="M130.443773,3.95949214 C130.519736,3.95066902 130.595566,3.97705694 130.649641,4.03113252 C130.703717,4.08520808 130.730105,4.16103747 130.721282,4.23700121 L130.721282,12.1541717 C130.721282,12.3500605 130.623337,12.4480048 130.443773,12.4480048 L128.517533,12.4480048 C128.436576,12.4597161 128.354838,12.4325502 128.296996,12.3747087 C128.239155,12.3168673 128.211989,12.2351292 128.2237,12.1541717 L128.2237,6.1305925 L125.954655,6.1305925 L125.954655,12.1541717 C125.954655,12.3500605 125.856711,12.4480048 125.677146,12.4480048 L123.750907,12.4480048 C123.66995,12.4597161 123.588211,12.4325502 123.53037,12.3747087 C123.472528,12.3168673 123.445363,12.2351292 123.457074,12.1541717 L123.457074,4.23700121 C123.457074,4.05562273 123.555018,3.95949214 123.750907,3.95949214 L130.443773,3.95949214 Z"></path>
                    <path d="M136.173519,12.6602177 C133.773881,12.6602177 132.288392,11.3542926 132.288392,9.19951632 L132.288392,7.24062878 C132.288392,5.05320435 133.773881,3.73095526 136.173519,3.73095526 C138.573156,3.73095526 140.042322,5.05320435 140.042322,7.24062878 L140.042322,9.19951632 C140.042322,11.3542926 138.556832,12.6602177 136.173519,12.6602177 Z M136.173519,10.4564692 C137.038694,10.4564692 137.512092,10.0157195 137.512092,9.19951632 L137.512092,7.24062878 C137.512092,6.42442563 137.038694,5.95102781 136.173519,5.95102781 C135.308343,5.95102781 134.834946,6.42442563 134.834946,7.24062878 L134.834946,9.19951632 C134.834946,10.0157195 135.308343,10.4564692 136.173519,10.4564692 Z"></path>
                    <path d="M141.087062,12.5296252 C141.006776,12.5383369 140.926869,12.5101915 140.869766,12.453088 C140.812662,12.3959846 140.784517,12.3160772 140.793229,12.235792 L140.793229,10.6360339 C140.789728,10.4757401 140.911043,10.3401538 141.070738,10.3258767 C141.560459,10.2442563 141.870617,9.93409915 142.08283,9.0362757 C142.295042,8.13845224 142.445586,6.60399033 142.507255,4.23700121 C142.504884,4.15979454 142.535662,4.08526306 142.591819,4.03222612 C142.647976,3.97918921 142.724143,3.9527164 142.801088,3.95949214 L148.694075,3.95949214 C148.889964,3.95949214 148.987908,4.05743652 148.987908,4.23700121 L148.987908,12.1541717 C148.999619,12.2351292 148.972453,12.3168673 148.914612,12.3747087 C148.856771,12.4325502 148.775032,12.4597161 148.694075,12.4480048 L146.800484,12.4480048 C146.719526,12.4597161 146.637788,12.4325502 146.579947,12.3747087 C146.522105,12.3168673 146.494939,12.2351292 146.506651,12.1541717 L146.506651,6.1305925 L144.792624,6.1305925 C144.743652,7.59975816 144.564087,9.10157195 144.302902,10.0320435 C143.862152,11.7623942 142.980653,12.4480048 141.087062,12.5296252 Z"></path>
                    <path d="M155.622733,4.23700121 C155.6172,4.15889409 155.647002,4.08242516 155.703929,4.02866059 C155.760856,3.974896 155.838902,3.94950856 155.916566,3.95949214 L157.842805,3.95949214 C157.918769,3.95066902 157.994598,3.97705694 158.048674,4.03113252 C158.10275,4.08520808 158.129138,4.16103747 158.120314,4.23700121 L158.120314,11.6318017 C158.120314,14.4721886 156.928658,15.7454655 154.251511,15.7454655 C152.863966,15.7454655 151.893591,15.4842805 151.003023,14.8385732 C150.93179,14.8051176 150.880439,14.7401085 150.864388,14.6630645 C150.848337,14.5860205 150.869456,14.5059136 150.921403,14.4467956 L151.786578,13.1245466 C151.822081,13.0558697 151.886745,13.0069389 151.962485,12.9914385 C152.038226,12.975938 152.116914,12.9955318 152.176542,13.04474 C152.773672,13.4025734 153.455637,13.5941997 154.151753,13.5997582 C155.131197,13.5997582 155.702539,13.2243047 155.686215,12.0163241 C155.204007,12.1608505 154.704076,12.237763 154.200726,12.2448609 C152.225514,12.2448609 150.7237,10.9752116 150.7237,8.75151149 L150.7237,4.23700121 C150.718167,4.15889409 150.747969,4.08242516 150.804897,4.02866059 C150.861824,3.974896 150.93987,3.94950856 151.017533,3.95949214 L152.943773,3.95949214 C153.019736,3.95066902 153.095566,3.97705694 153.149641,4.03113252 C153.203717,4.08520808 153.230105,4.16103747 153.221282,4.23700121 L153.221282,8.69165659 C153.221282,9.6547763 153.743652,10.0792019 154.576179,10.0792019 C154.942368,10.0819637 155.30466,10.0039315 155.637243,9.85066505 L155.622733,4.23700121 Z"></path>
                    <path d="M164.675333,12.4480048 C164.594375,12.4597161 164.512637,12.4325502 164.454796,12.3747087 C164.396954,12.3168673 164.369788,12.2351292 164.381499,12.1541717 L164.381499,9.77992745 C163.907377,9.93356075 163.410552,10.0053244 162.912334,9.99214027 C161.279927,9.99214027 159.631197,9.04534462 159.631197,6.4171705 L159.631197,4.23700121 C159.622374,4.16103747 159.648762,4.08520808 159.702837,4.03113252 C159.756913,3.97705694 159.832743,3.95066902 159.908706,3.95949214 L161.834946,3.95949214 C162.030834,3.95949214 162.128779,4.05743652 162.128779,4.23700121 L162.128779,6.27750907 C162.128779,7.32224909 162.520556,7.72853688 163.255139,7.72853688 C163.639491,7.73364256 164.021439,7.66721672 164.381499,7.53264813 L164.381499,4.23700121 C164.381499,4.05562273 164.479444,3.95949214 164.675333,3.95949214 L166.601572,3.95949214 C166.677536,3.95066902 166.753365,3.97705694 166.807441,4.03113252 C166.861516,4.08520808 166.887904,4.16103747 166.879081,4.23700121 L166.879081,12.1541717 C166.879081,12.3500605 166.781137,12.4480048 166.601572,12.4480048 L164.675333,12.4480048 Z"></path>
                    <path d="M169.001209,12.4480048 C168.920252,12.4597161 168.838514,12.4325502 168.780672,12.3747087 C168.722831,12.3168673 168.695665,12.2351292 168.707376,12.1541717 L168.707376,4.23700121 C168.707376,4.05562273 168.80532,3.95949214 169.001209,3.95949214 L170.878476,3.95949214 C170.95614,3.94950856 171.034186,3.974896 171.091113,4.02866059 C171.14804,4.08242516 171.177843,4.15889409 171.17231,4.23700121 L171.17231,6.79987908 C171.17231,7.42019347 171.155985,8.23639661 171.139661,8.87303507 L171.155985,8.87303507 C171.400846,8.32889964 172.184401,6.89782346 172.425635,6.47339782 L173.715236,4.15538089 C173.768953,4.0252294 173.901599,3.94564233 174.041717,3.95949214 L176.065901,3.95949214 C176.26179,3.95949214 176.359734,4.05743652 176.359734,4.23700121 L176.359734,12.1541717 C176.371445,12.2351292 176.344279,12.3168673 176.286438,12.3747087 C176.228596,12.4325502 176.146858,12.4597161 176.065901,12.4480048 L174.188634,12.4480048 C174.007255,12.4480048 173.911125,12.3500605 173.911125,12.1541717 L173.911125,9.59854897 C173.911125,9.04353083 173.927449,8.12938331 173.943773,7.55804111 L173.927449,7.55804111 C173.698912,8.10217654 173.020556,9.37182588 172.637848,10.0066505 L171.331923,12.2593712 C171.266307,12.3865802 171.132025,12.463313 170.989117,12.45526 L169.001209,12.4480048 Z"></path>
                    <path d="M180.13422,12.4480048 C180.053935,12.4567166 179.974028,12.4285712 179.916924,12.3714677 C179.859821,12.3143643 179.831675,12.2344569 179.840387,12.1541717 L179.840387,6.1305925 L177.816203,6.1305925 C177.634825,6.1305925 177.538694,6.03264813 177.538694,5.83675937 L177.538694,4.23700121 C177.529871,4.16103747 177.556259,4.08520808 177.610334,4.03113252 C177.66441,3.97705694 177.740239,3.95066902 177.816203,3.95949214 L184.345828,3.95949214 C184.541717,3.95949214 184.639661,4.05743652 184.639661,4.23700121 L184.639661,5.83675937 C184.651373,5.91771684 184.624206,5.99945496 184.566365,6.05729641 C184.508525,6.11513784 184.426787,6.14230373 184.345828,6.1305925 L182.337969,6.1305925 L182.337969,12.1541717 C182.337969,12.3500605 182.240024,12.4480048 182.060459,12.4480048 L180.13422,12.4480048 Z"></path>
                    <path d="M189.275695,12.6602177 C186.810762,12.6602177 185.406892,11.2889964 185.406892,9.10157195 L185.406892,7.25695284 C185.406892,5.10217654 186.827086,3.73095526 189.259371,3.73095526 C190.205742,3.73272916 191.132862,3.99842788 191.936518,4.49818622 C192.005868,4.53771533 192.054678,4.60536181 192.070333,4.68363575 C192.085988,4.7619097 192.066949,4.84312654 192.018138,4.90628779 L191.152963,6.21221282 C191.055018,6.37545345 190.924426,6.39359129 190.744861,6.31015719 C190.325525,6.07437287 189.854599,5.94542888 189.37364,5.93470375 C188.475816,5.93470375 187.937122,6.42442563 187.937122,7.25695284 L187.937122,9.10157195 C187.937122,10.0084643 188.508464,10.4564692 189.357316,10.4564692 C189.914416,10.4531495 190.45866,10.2887421 190.924426,9.98307134 C190.987587,9.93426005 191.068803,9.91522048 191.147077,9.93087526 C191.225352,9.94653005 191.292998,9.9953423 191.332527,10.0646917 L192.214027,11.3706167 C192.262997,11.4276676 192.285604,11.5027425 192.276278,11.5773476 C192.266953,11.6519528 192.226562,11.7191529 192.165054,11.7623942 C191.323115,12.3637341 190.310169,12.6784918 189.275695,12.6602177 Z"></path>
                    <path d="M193.144498,12.4480048 C192.915961,12.4480048 192.850665,12.3010883 192.96312,12.1051995 L194.800484,9.34643289 C193.712213,8.97097944 193.053809,7.95888755 193.053809,6.80713422 C193.053809,5.0114873 194.408706,3.96674728 196.35127,3.96674728 L200.08948,3.96674728 C200.167144,3.9567637 200.24519,3.98215114 200.302117,4.03591573 C200.359045,4.0896803 200.388847,4.16614923 200.383313,4.24425635 L200.383313,12.1614268 C200.392025,12.241712 200.36388,12.3216194 200.306777,12.3787229 C200.249674,12.4358263 200.169765,12.4639717 200.08948,12.45526 L198.179565,12.45526 C198.098606,12.4669712 198.016868,12.4398053 197.959028,12.3819639 C197.901187,12.3241224 197.87402,12.2423843 197.885732,12.1614268 L197.885732,9.62212817 L197.281741,9.62212817 L195.665659,12.2666264 C195.60643,12.3919106 195.477595,12.4692113 195.339178,12.4625151 L193.144498,12.4480048 Z M196.654172,7.69770254 L197.8948,7.69770254 L197.8948,5.91837969 L196.654172,5.91837969 C195.952237,5.91837969 195.593108,6.21221282 195.593108,6.78355502 C195.593108,7.40386941 195.952237,7.69770254 196.654172,7.69770254 Z"></path>
                    <path d="M203.55925,12.6438936 C203.168768,12.6574639 202.789943,12.5095615 202.511953,12.2350033 C202.233963,11.9604452 202.081366,11.5834867 202.090085,11.1928658 C202.117972,10.3970978 202.771155,9.76640356 203.567412,9.76640356 C204.363669,9.76640356 205.016853,10.3970978 205.04474,11.1928658 C205.049975,11.5853211 204.893995,11.9627438 204.613224,12.2370003 C204.332454,12.5112569 203.951474,12.6583364 203.55925,12.6438936 Z M202.759371,8.88935913 C202.681264,8.89489212 202.604795,8.86508996 202.551031,8.80816277 C202.497267,8.75123556 202.471879,8.67318979 202.481862,8.595526 L202.318622,3.95949214 L202.318622,1.07376058 C202.318622,0.877871826 202.416566,0.779927449 202.596131,0.779927449 L204.52237,0.779927449 C204.602655,0.771215721 204.682563,0.799361095 204.739667,0.85646455 C204.79677,0.913568006 204.824915,0.993475369 204.816203,1.07376058 L204.816203,3.96311971 L204.652963,8.59915357 C204.65901,8.67878331 204.63,8.75708608 204.573531,8.81355492 C204.517061,8.87002375 204.43876,8.89903349 204.359129,8.8929867 L202.759371,8.88935913 Z"></path>
                </g>
            </g>
        </g>
    </g>
</svg>